G04 Layer: BottomPasteMaskLayer*
G04 EasyEDA v6.4.7, 2021-02-16T15:30:58+08:00*
G04 8c01864160504501bdac00437da3a378,c90e5f1b40cb41e8ad4f4329b629d2df,10*
G04 Gerber Generator version 0.2*
G04 Scale: 100 percent, Rotated: No, Reflected: No *
G04 Dimensions in millimeters *
G04 leading zeros omitted , absolute positions ,3 integer and 3 decimal *
%FSLAX33Y33*%
%MOMM*%
G90*
D02*

%ADD12C,0.299999*%
%ADD30C,0.999998*%
%ADD52R,1.799996X0.819988*%

%LPD*%
G54D30*
G01X292540Y93026D02*
G01X292540Y93826D01*
G01X292540Y88726D02*
G01X292540Y89826D01*
G01X283899Y88726D02*
G01X283899Y89826D01*
G01X283899Y93026D02*
G01X283899Y93826D01*
G54D12*
G01X302483Y50123D02*
G01X302483Y51123D01*
G01X302982Y50123D02*
G01X302982Y51123D01*
G01X303483Y50123D02*
G01X303483Y51123D01*
G01X303982Y50123D02*
G01X303982Y51123D01*
G01X304483Y50123D02*
G01X304483Y51123D01*
G01X304982Y50123D02*
G01X304982Y51123D01*
G01X305483Y50123D02*
G01X305483Y51123D01*
G01X305982Y50123D02*
G01X305982Y51123D01*
G01X306483Y50123D02*
G01X306483Y51123D01*
G01X306982Y50123D02*
G01X306982Y51123D01*
G01X307483Y50123D02*
G01X307483Y51123D01*
G01X307983Y49623D02*
G01X308983Y49623D01*
G01X307983Y49123D02*
G01X308983Y49123D01*
G01X307983Y48623D02*
G01X308983Y48623D01*
G01X307983Y48123D02*
G01X308983Y48123D01*
G01X307983Y47623D02*
G01X308983Y47623D01*
G01X307983Y47123D02*
G01X308983Y47123D01*
G01X307983Y46623D02*
G01X308983Y46623D01*
G01X307983Y46123D02*
G01X308983Y46123D01*
G01X307983Y45623D02*
G01X308983Y45623D01*
G01X307983Y45123D02*
G01X308983Y45123D01*
G01X307983Y44623D02*
G01X308983Y44623D01*
G01X307483Y43123D02*
G01X307483Y44123D01*
G01X306982Y43123D02*
G01X306982Y44123D01*
G01X306483Y43123D02*
G01X306483Y44123D01*
G01X305982Y43123D02*
G01X305982Y44123D01*
G01X305483Y43123D02*
G01X305483Y44123D01*
G01X304982Y43123D02*
G01X304982Y44123D01*
G01X304483Y43123D02*
G01X304483Y44123D01*
G01X303982Y43123D02*
G01X303982Y44123D01*
G01X303483Y43123D02*
G01X303483Y44123D01*
G01X302982Y43123D02*
G01X302982Y44123D01*
G01X302483Y43123D02*
G01X302483Y44123D01*
G01X300983Y44623D02*
G01X301983Y44623D01*
G01X300983Y45123D02*
G01X301983Y45123D01*
G01X300983Y45623D02*
G01X301983Y45623D01*
G01X300983Y46123D02*
G01X301983Y46123D01*
G01X300983Y46623D02*
G01X301983Y46623D01*
G01X300983Y47123D02*
G01X301983Y47123D01*
G01X300983Y47623D02*
G01X301983Y47623D01*
G01X300983Y48123D02*
G01X301983Y48123D01*
G01X300983Y48623D02*
G01X301983Y48623D01*
G01X300983Y49123D02*
G01X301983Y49123D01*
G01X300983Y49623D02*
G01X301983Y49623D01*
G36*
G01X313384Y32794D02*
G01X312474Y32794D01*
G01X312474Y36054D01*
G01X313384Y36054D01*
G01X313384Y32794D01*
G37*
G36*
G01X313384Y30914D02*
G01X312474Y30914D01*
G01X312474Y27654D01*
G01X313384Y27654D01*
G01X313384Y30914D01*
G37*
G36*
G01X328854Y31155D02*
G01X328854Y32155D01*
G01X327304Y32155D01*
G01X327304Y31155D01*
G01X328854Y31155D01*
G37*
G36*
G01X328854Y29155D02*
G01X328854Y30155D01*
G01X327304Y30155D01*
G01X327304Y29155D01*
G01X328854Y29155D01*
G37*
G36*
G01X290529Y51529D02*
G01X289529Y51529D01*
G01X289529Y49979D01*
G01X290529Y49979D01*
G01X290529Y51529D01*
G37*
G36*
G01X288529Y51529D02*
G01X287529Y51529D01*
G01X287529Y49979D01*
G01X288529Y49979D01*
G01X288529Y51529D01*
G37*
G36*
G01X74087Y91284D02*
G01X75587Y91284D01*
G01X75587Y92185D01*
G01X74087Y92185D01*
G01X74087Y91284D01*
G37*
G36*
G01X77665Y91284D02*
G01X79166Y91284D01*
G01X79166Y92185D01*
G01X77665Y92185D01*
G01X77665Y91284D01*
G37*
G36*
G01X77665Y93316D02*
G01X79166Y93316D01*
G01X79166Y94217D01*
G01X77665Y94217D01*
G01X77665Y93316D01*
G37*
G36*
G01X74087Y93316D02*
G01X75587Y93316D01*
G01X75587Y94217D01*
G01X74087Y94217D01*
G01X74087Y93316D01*
G37*
G36*
G01X113879Y91284D02*
G01X115379Y91284D01*
G01X115379Y92185D01*
G01X113879Y92185D01*
G01X113879Y91284D01*
G37*
G36*
G01X117457Y91284D02*
G01X118957Y91284D01*
G01X118957Y92185D01*
G01X117457Y92185D01*
G01X117457Y91284D01*
G37*
G36*
G01X117457Y93316D02*
G01X118957Y93316D01*
G01X118957Y94217D01*
G01X117457Y94217D01*
G01X117457Y93316D01*
G37*
G36*
G01X113879Y93316D02*
G01X115379Y93316D01*
G01X115379Y94217D01*
G01X113879Y94217D01*
G01X113879Y93316D01*
G37*
G36*
G01X169329Y91284D02*
G01X170829Y91284D01*
G01X170829Y92185D01*
G01X169329Y92185D01*
G01X169329Y91284D01*
G37*
G36*
G01X172907Y91284D02*
G01X174407Y91284D01*
G01X174407Y92185D01*
G01X172907Y92185D01*
G01X172907Y91284D01*
G37*
G36*
G01X172907Y93316D02*
G01X174407Y93316D01*
G01X174407Y94217D01*
G01X172907Y94217D01*
G01X172907Y93316D01*
G37*
G36*
G01X169329Y93316D02*
G01X170829Y93316D01*
G01X170829Y94217D01*
G01X169329Y94217D01*
G01X169329Y93316D01*
G37*
G36*
G01X209469Y91284D02*
G01X210969Y91284D01*
G01X210969Y92185D01*
G01X209469Y92185D01*
G01X209469Y91284D01*
G37*
G36*
G01X213047Y91284D02*
G01X214548Y91284D01*
G01X214548Y92185D01*
G01X213047Y92185D01*
G01X213047Y91284D01*
G37*
G36*
G01X213047Y93316D02*
G01X214548Y93316D01*
G01X214548Y94217D01*
G01X213047Y94217D01*
G01X213047Y93316D01*
G37*
G36*
G01X209469Y93316D02*
G01X210969Y93316D01*
G01X210969Y94217D01*
G01X209469Y94217D01*
G01X209469Y93316D01*
G37*
G36*
G01X257983Y91284D02*
G01X259483Y91284D01*
G01X259483Y92185D01*
G01X257983Y92185D01*
G01X257983Y91284D01*
G37*
G36*
G01X261561Y91284D02*
G01X263062Y91284D01*
G01X263062Y92185D01*
G01X261561Y92185D01*
G01X261561Y91284D01*
G37*
G36*
G01X261561Y93316D02*
G01X263062Y93316D01*
G01X263062Y94217D01*
G01X261561Y94217D01*
G01X261561Y93316D01*
G37*
G36*
G01X257983Y93316D02*
G01X259483Y93316D01*
G01X259483Y94217D01*
G01X257983Y94217D01*
G01X257983Y93316D01*
G37*
G36*
G01X307513Y91284D02*
G01X309013Y91284D01*
G01X309013Y92185D01*
G01X307513Y92185D01*
G01X307513Y91284D01*
G37*
G36*
G01X311091Y91284D02*
G01X312592Y91284D01*
G01X312592Y92185D01*
G01X311091Y92185D01*
G01X311091Y91284D01*
G37*
G36*
G01X311091Y93316D02*
G01X312592Y93316D01*
G01X312592Y94217D01*
G01X311091Y94217D01*
G01X311091Y93316D01*
G37*
G36*
G01X307513Y93316D02*
G01X309013Y93316D01*
G01X309013Y94217D01*
G01X307513Y94217D01*
G01X307513Y93316D01*
G37*
G36*
G01X303229Y74834D02*
G01X304729Y74834D01*
G01X304729Y75734D01*
G01X303229Y75734D01*
G01X303229Y74834D01*
G37*
G36*
G01X306807Y74834D02*
G01X308307Y74834D01*
G01X308307Y75734D01*
G01X306807Y75734D01*
G01X306807Y74834D01*
G37*
G36*
G01X306807Y76866D02*
G01X308307Y76866D01*
G01X308307Y77766D01*
G01X306807Y77766D01*
G01X306807Y76866D01*
G37*
G36*
G01X303229Y76866D02*
G01X304729Y76866D01*
G01X304729Y77766D01*
G01X303229Y77766D01*
G01X303229Y76866D01*
G37*
G36*
G01X307929Y17284D02*
G01X309429Y17284D01*
G01X309429Y18184D01*
G01X307929Y18184D01*
G01X307929Y17284D01*
G37*
G36*
G01X311507Y17284D02*
G01X313007Y17284D01*
G01X313007Y18184D01*
G01X311507Y18184D01*
G01X311507Y17284D01*
G37*
G36*
G01X311507Y19316D02*
G01X313007Y19316D01*
G01X313007Y20216D01*
G01X311507Y20216D01*
G01X311507Y19316D01*
G37*
G36*
G01X307929Y19316D02*
G01X309429Y19316D01*
G01X309429Y20216D01*
G01X307929Y20216D01*
G01X307929Y19316D01*
G37*
G36*
G01X306679Y884D02*
G01X308179Y884D01*
G01X308179Y1784D01*
G01X306679Y1784D01*
G01X306679Y884D01*
G37*
G36*
G01X310257Y884D02*
G01X311757Y884D01*
G01X311757Y1784D01*
G01X310257Y1784D01*
G01X310257Y884D01*
G37*
G36*
G01X310257Y2916D02*
G01X311757Y2916D01*
G01X311757Y3816D01*
G01X310257Y3816D01*
G01X310257Y2916D01*
G37*
G36*
G01X306679Y2916D02*
G01X308179Y2916D01*
G01X308179Y3816D01*
G01X306679Y3816D01*
G01X306679Y2916D01*
G37*
G36*
G01X263698Y834D02*
G01X265198Y834D01*
G01X265198Y1734D01*
G01X263698Y1734D01*
G01X263698Y834D01*
G37*
G36*
G01X267276Y834D02*
G01X268777Y834D01*
G01X268777Y1734D01*
G01X267276Y1734D01*
G01X267276Y834D01*
G37*
G36*
G01X267276Y2866D02*
G01X268777Y2866D01*
G01X268777Y3766D01*
G01X267276Y3766D01*
G01X267276Y2866D01*
G37*
G36*
G01X263698Y2866D02*
G01X265198Y2866D01*
G01X265198Y3766D01*
G01X263698Y3766D01*
G01X263698Y2866D01*
G37*
G36*
G01X212629Y834D02*
G01X214129Y834D01*
G01X214129Y1734D01*
G01X212629Y1734D01*
G01X212629Y834D01*
G37*
G36*
G01X216207Y834D02*
G01X217707Y834D01*
G01X217707Y1734D01*
G01X216207Y1734D01*
G01X216207Y834D01*
G37*
G36*
G01X216207Y2866D02*
G01X217707Y2866D01*
G01X217707Y3766D01*
G01X216207Y3766D01*
G01X216207Y2866D01*
G37*
G36*
G01X212629Y2866D02*
G01X214129Y2866D01*
G01X214129Y3766D01*
G01X212629Y3766D01*
G01X212629Y2866D01*
G37*
G36*
G01X169629Y834D02*
G01X171129Y834D01*
G01X171129Y1734D01*
G01X169629Y1734D01*
G01X169629Y834D01*
G37*
G36*
G01X173207Y834D02*
G01X174707Y834D01*
G01X174707Y1734D01*
G01X173207Y1734D01*
G01X173207Y834D01*
G37*
G36*
G01X173207Y2866D02*
G01X174707Y2866D01*
G01X174707Y3766D01*
G01X173207Y3766D01*
G01X173207Y2866D01*
G37*
G36*
G01X169629Y2866D02*
G01X171129Y2866D01*
G01X171129Y3766D01*
G01X169629Y3766D01*
G01X169629Y2866D01*
G37*
G36*
G01X116779Y834D02*
G01X118279Y834D01*
G01X118279Y1734D01*
G01X116779Y1734D01*
G01X116779Y834D01*
G37*
G36*
G01X120357Y834D02*
G01X121857Y834D01*
G01X121857Y1734D01*
G01X120357Y1734D01*
G01X120357Y834D01*
G37*
G36*
G01X120357Y2866D02*
G01X121857Y2866D01*
G01X121857Y3766D01*
G01X120357Y3766D01*
G01X120357Y2866D01*
G37*
G36*
G01X116779Y2866D02*
G01X118279Y2866D01*
G01X118279Y3766D01*
G01X116779Y3766D01*
G01X116779Y2866D01*
G37*
G36*
G01X72229Y834D02*
G01X73729Y834D01*
G01X73729Y1734D01*
G01X72229Y1734D01*
G01X72229Y834D01*
G37*
G36*
G01X75807Y834D02*
G01X77307Y834D01*
G01X77307Y1734D01*
G01X75807Y1734D01*
G01X75807Y834D01*
G37*
G36*
G01X75807Y2866D02*
G01X77307Y2866D01*
G01X77307Y3766D01*
G01X75807Y3766D01*
G01X75807Y2866D01*
G37*
G36*
G01X72229Y2866D02*
G01X73729Y2866D01*
G01X73729Y3766D01*
G01X72229Y3766D01*
G01X72229Y2866D01*
G37*
G36*
G01X22017Y834D02*
G01X23517Y834D01*
G01X23517Y1734D01*
G01X22017Y1734D01*
G01X22017Y834D01*
G37*
G36*
G01X25595Y834D02*
G01X27096Y834D01*
G01X27096Y1734D01*
G01X25595Y1734D01*
G01X25595Y834D01*
G37*
G36*
G01X25595Y2866D02*
G01X27096Y2866D01*
G01X27096Y3766D01*
G01X25595Y3766D01*
G01X25595Y2866D01*
G37*
G36*
G01X22017Y2866D02*
G01X23517Y2866D01*
G01X23517Y3766D01*
G01X22017Y3766D01*
G01X22017Y2866D01*
G37*
G36*
G01X20679Y17134D02*
G01X22179Y17134D01*
G01X22179Y18034D01*
G01X20679Y18034D01*
G01X20679Y17134D01*
G37*
G36*
G01X24257Y17134D02*
G01X25758Y17134D01*
G01X25758Y18034D01*
G01X24257Y18034D01*
G01X24257Y17134D01*
G37*
G36*
G01X24257Y19166D02*
G01X25758Y19166D01*
G01X25758Y20066D01*
G01X24257Y20066D01*
G01X24257Y19166D01*
G37*
G36*
G01X20679Y19166D02*
G01X22179Y19166D01*
G01X22179Y20066D01*
G01X20679Y20066D01*
G01X20679Y19166D01*
G37*
G36*
G01X20679Y72384D02*
G01X22179Y72384D01*
G01X22179Y73284D01*
G01X20679Y73284D01*
G01X20679Y72384D01*
G37*
G36*
G01X24257Y72384D02*
G01X25757Y72384D01*
G01X25757Y73284D01*
G01X24257Y73284D01*
G01X24257Y72384D01*
G37*
G36*
G01X24257Y74416D02*
G01X25757Y74416D01*
G01X25757Y75316D01*
G01X24257Y75316D01*
G01X24257Y74416D01*
G37*
G36*
G01X20679Y74416D02*
G01X22179Y74416D01*
G01X22179Y75316D01*
G01X20679Y75316D01*
G01X20679Y74416D01*
G37*
G36*
G01X18829Y91284D02*
G01X20329Y91284D01*
G01X20329Y92185D01*
G01X18829Y92185D01*
G01X18829Y91284D01*
G37*
G36*
G01X22407Y91284D02*
G01X23907Y91284D01*
G01X23907Y92185D01*
G01X22407Y92185D01*
G01X22407Y91284D01*
G37*
G36*
G01X22407Y93316D02*
G01X23907Y93316D01*
G01X23907Y94217D01*
G01X22407Y94217D01*
G01X22407Y93316D01*
G37*
G36*
G01X18829Y93316D02*
G01X20329Y93316D01*
G01X20329Y94217D01*
G01X18829Y94217D01*
G01X18829Y93316D01*
G37*
G36*
G01X324054Y47267D02*
G01X324054Y48667D01*
G01X322904Y48667D01*
G01X322904Y47267D01*
G01X324054Y47267D01*
G37*
G36*
G01X322454Y45067D02*
G01X322454Y46105D01*
G01X322075Y46467D01*
G01X321304Y46467D01*
G01X321304Y45067D01*
G01X322454Y45067D01*
G37*
G36*
G01X324054Y45067D02*
G01X324054Y46467D01*
G01X322904Y46467D01*
G01X322904Y45067D01*
G01X324054Y45067D01*
G37*
G36*
G01X322454Y47267D02*
G01X322454Y48667D01*
G01X321304Y48667D01*
G01X321304Y47267D01*
G01X322454Y47267D01*
G37*
G36*
G01X322180Y34180D02*
G01X323180Y34180D01*
G01X323180Y35730D01*
G01X322180Y35730D01*
G01X322180Y34180D01*
G37*
G36*
G01X324180Y34180D02*
G01X325180Y34180D01*
G01X325180Y35730D01*
G01X324180Y35730D01*
G01X324180Y34180D01*
G37*
G36*
G01X322180Y31830D02*
G01X323180Y31830D01*
G01X323180Y33380D01*
G01X322180Y33380D01*
G01X322180Y31830D01*
G37*
G36*
G01X324180Y31830D02*
G01X325180Y31830D01*
G01X325180Y33380D01*
G01X324180Y33380D01*
G01X324180Y31830D01*
G37*
G36*
G01X288579Y78854D02*
G01X288579Y77754D01*
G01X289279Y77754D01*
G01X289279Y78854D01*
G01X288579Y78854D01*
G37*
G36*
G01X288579Y76904D02*
G01X288579Y76304D01*
G01X289279Y76304D01*
G01X289279Y76904D01*
G01X288579Y76904D01*
G37*
G36*
G01X286179Y76904D02*
G01X286179Y76304D01*
G01X286879Y76304D01*
G01X286879Y76904D01*
G01X286179Y76904D01*
G37*
G36*
G01X286179Y78804D02*
G01X286179Y78204D01*
G01X286879Y78204D01*
G01X286879Y78804D01*
G01X286179Y78804D01*
G37*
G36*
G01X284719Y86926D02*
G01X285319Y86926D01*
G01X285319Y89276D01*
G01X284719Y89276D01*
G01X284719Y86926D01*
G37*
G36*
G01X285519Y86926D02*
G01X286119Y86926D01*
G01X286119Y89276D01*
G01X285519Y89276D01*
G01X285519Y86926D01*
G37*
G36*
G01X291119Y86926D02*
G01X291719Y86926D01*
G01X291719Y89276D01*
G01X291119Y89276D01*
G01X291119Y86926D01*
G37*
G36*
G01X290320Y86926D02*
G01X290920Y86926D01*
G01X290920Y89276D01*
G01X290320Y89276D01*
G01X290320Y86926D01*
G37*
G36*
G01X289820Y86926D02*
G01X290120Y86926D01*
G01X290120Y89276D01*
G01X289820Y89276D01*
G01X289820Y86926D01*
G37*
G36*
G01X289319Y86926D02*
G01X289619Y86926D01*
G01X289619Y89276D01*
G01X289319Y89276D01*
G01X289319Y86926D01*
G37*
G36*
G01X288820Y86926D02*
G01X289120Y86926D01*
G01X289120Y89276D01*
G01X288820Y89276D01*
G01X288820Y86926D01*
G37*
G36*
G01X288319Y86926D02*
G01X288619Y86926D01*
G01X288619Y89276D01*
G01X288319Y89276D01*
G01X288319Y86926D01*
G37*
G36*
G01X287820Y86926D02*
G01X288120Y86926D01*
G01X288120Y89276D01*
G01X287820Y89276D01*
G01X287820Y86926D01*
G37*
G36*
G01X287319Y86926D02*
G01X287619Y86926D01*
G01X287619Y89276D01*
G01X287319Y89276D01*
G01X287319Y86926D01*
G37*
G36*
G01X286820Y86926D02*
G01X287120Y86926D01*
G01X287120Y89276D01*
G01X286820Y89276D01*
G01X286820Y86926D01*
G37*
G36*
G01X286319Y86926D02*
G01X286619Y86926D01*
G01X286619Y89276D01*
G01X286319Y89276D01*
G01X286319Y86926D01*
G37*
G36*
G01X289029Y82404D02*
G01X289029Y81604D01*
G01X289929Y81604D01*
G01X289929Y82404D01*
G01X289029Y82404D01*
G37*
G36*
G01X289029Y83804D02*
G01X289029Y83004D01*
G01X289929Y83004D01*
G01X289929Y83804D01*
G01X289029Y83804D01*
G37*
G36*
G01X285429Y83004D02*
G01X285429Y83804D01*
G01X284529Y83804D01*
G01X284529Y83004D01*
G01X285429Y83004D01*
G37*
G36*
G01X285429Y81604D02*
G01X285429Y82404D01*
G01X284529Y82404D01*
G01X284529Y81604D01*
G01X285429Y81604D01*
G37*
G36*
G01X154029Y6854D02*
G01X155829Y6854D01*
G01X155829Y8054D01*
G01X154029Y8054D01*
G01X154029Y6854D01*
G37*
G36*
G01X154029Y10554D02*
G01X155829Y10554D01*
G01X155829Y11754D01*
G01X154029Y11754D01*
G01X154029Y10554D01*
G37*
G36*
G01X147629Y6854D02*
G01X149429Y6854D01*
G01X149429Y8054D01*
G01X147629Y8054D01*
G01X147629Y6854D01*
G37*
G36*
G01X147629Y10554D02*
G01X149429Y10554D01*
G01X149429Y11754D01*
G01X147629Y11754D01*
G01X147629Y10554D01*
G37*
G36*
G01X302382Y49723D02*
G01X302382Y44523D01*
G01X307582Y44523D01*
G01X307582Y49723D01*
G01X302382Y49723D01*
G37*
G36*
G01X299879Y38554D02*
G01X299879Y37754D01*
G01X300779Y37754D01*
G01X300779Y38554D01*
G01X299879Y38554D01*
G37*
G36*
G01X299879Y39954D02*
G01X299879Y39154D01*
G01X300779Y39154D01*
G01X300779Y39954D01*
G01X299879Y39954D01*
G37*
G36*
G01X322140Y28483D02*
G01X322140Y29047D01*
G01X320928Y29047D01*
G01X320928Y28483D01*
G01X322140Y28483D01*
G37*
G36*
G01X322140Y29423D02*
G01X322140Y29987D01*
G01X320928Y29987D01*
G01X320928Y29423D01*
G01X322140Y29423D01*
G37*
G36*
G01X322140Y30363D02*
G01X322140Y30926D01*
G01X320928Y30926D01*
G01X320928Y30363D01*
G01X322140Y30363D01*
G37*
G36*
G01X324731Y30363D02*
G01X324731Y30926D01*
G01X323519Y30926D01*
G01X323519Y30363D01*
G01X324731Y30363D01*
G37*
G36*
G01X324731Y28483D02*
G01X324731Y29047D01*
G01X323519Y29047D01*
G01X323519Y28483D01*
G01X324731Y28483D01*
G37*
G36*
G01X323519Y29987D02*
G01X323519Y29423D01*
G01X324731Y29423D01*
G01X324731Y29987D01*
G01X323519Y29987D01*
G37*
G36*
G01X295249Y56450D02*
G01X296049Y56450D01*
G01X296049Y57351D01*
G01X295249Y57351D01*
G01X295249Y56450D01*
G37*
G36*
G01X293849Y56450D02*
G01X294649Y56450D01*
G01X294649Y57351D01*
G01X293849Y57351D01*
G01X293849Y56450D01*
G37*
G36*
G01X295229Y54704D02*
G01X296029Y54704D01*
G01X296029Y55604D01*
G01X295229Y55604D01*
G01X295229Y54704D01*
G37*
G36*
G01X293829Y54704D02*
G01X294629Y54704D01*
G01X294629Y55604D01*
G01X293829Y55604D01*
G01X293829Y54704D01*
G37*
G36*
G01X319779Y29304D02*
G01X319779Y30304D01*
G01X318679Y30304D01*
G01X318679Y29304D01*
G01X319779Y29304D01*
G37*
G36*
G01X319779Y30704D02*
G01X319779Y31704D01*
G01X318679Y31704D01*
G01X318679Y30704D01*
G01X319779Y30704D01*
G37*
G36*
G01X317372Y45048D02*
G01X318372Y45048D01*
G01X318372Y46148D01*
G01X317372Y46148D01*
G01X317372Y45048D01*
G37*
G36*
G01X318772Y45048D02*
G01X319772Y45048D01*
G01X319772Y46148D01*
G01X318772Y46148D01*
G01X318772Y45048D01*
G37*
G36*
G01X317372Y47715D02*
G01X318372Y47715D01*
G01X318372Y48815D01*
G01X317372Y48815D01*
G01X317372Y47715D01*
G37*
G36*
G01X318772Y47715D02*
G01X319772Y47715D01*
G01X319772Y48815D01*
G01X318772Y48815D01*
G01X318772Y47715D01*
G37*
G36*
G01X7979Y53629D02*
G01X8979Y53629D01*
G01X8979Y55179D01*
G01X7979Y55179D01*
G01X7979Y53629D01*
G37*
G36*
G01X5979Y53629D02*
G01X6979Y53629D01*
G01X6979Y55179D01*
G01X5979Y55179D01*
G01X5979Y53629D01*
G37*
G36*
G01X149629Y4329D02*
G01X150629Y4329D01*
G01X150629Y5879D01*
G01X149629Y5879D01*
G01X149629Y4329D01*
G37*
G36*
G01X147629Y4329D02*
G01X148629Y4329D01*
G01X148629Y5879D01*
G01X147629Y5879D01*
G01X147629Y4329D01*
G37*
G36*
G01X325129Y25279D02*
G01X324129Y25279D01*
G01X324129Y23729D01*
G01X325129Y23729D01*
G01X325129Y25279D01*
G37*
G36*
G01X323129Y25279D02*
G01X322129Y25279D01*
G01X322129Y23729D01*
G01X323129Y23729D01*
G01X323129Y25279D01*
G37*
G36*
G01X325129Y27629D02*
G01X324129Y27629D01*
G01X324129Y26079D01*
G01X325129Y26079D01*
G01X325129Y27629D01*
G37*
G36*
G01X323129Y27629D02*
G01X322129Y27629D01*
G01X322129Y26079D01*
G01X323129Y26079D01*
G01X323129Y27629D01*
G37*
G36*
G01X323304Y36854D02*
G01X323304Y37854D01*
G01X321754Y37854D01*
G01X321754Y36854D01*
G01X323304Y36854D01*
G37*
G36*
G01X323304Y38854D02*
G01X323304Y39854D01*
G01X321754Y39854D01*
G01X321754Y38854D01*
G01X323304Y38854D01*
G37*
G36*
G01X320954Y36854D02*
G01X320954Y37854D01*
G01X319404Y37854D01*
G01X319404Y36854D01*
G01X320954Y36854D01*
G37*
G36*
G01X320954Y38854D02*
G01X320954Y39854D01*
G01X319404Y39854D01*
G01X319404Y38854D01*
G01X320954Y38854D01*
G37*
G36*
G01X318554Y36854D02*
G01X318554Y37854D01*
G01X317004Y37854D01*
G01X317004Y36854D01*
G01X318554Y36854D01*
G37*
G36*
G01X318554Y38854D02*
G01X318554Y39854D01*
G01X317004Y39854D01*
G01X317004Y38854D01*
G01X318554Y38854D01*
G37*
G36*
G01X316172Y36859D02*
G01X316172Y37859D01*
G01X314622Y37859D01*
G01X314622Y36859D01*
G01X316172Y36859D01*
G37*
G36*
G01X316172Y38859D02*
G01X316172Y39859D01*
G01X314622Y39859D01*
G01X314622Y38859D01*
G01X316172Y38859D01*
G37*
G36*
G01X319757Y32840D02*
G01X319757Y33840D01*
G01X318657Y33840D01*
G01X318657Y32840D01*
G01X319757Y32840D01*
G37*
G36*
G01X319757Y34240D02*
G01X319757Y35240D01*
G01X318657Y35240D01*
G01X318657Y34240D01*
G01X319757Y34240D01*
G37*
G36*
G01X15664Y10862D02*
G01X16863Y10862D01*
G01X16863Y12262D01*
G01X15664Y12262D01*
G01X15664Y10862D01*
G37*
G36*
G01X19063Y10862D02*
G01X20263Y10862D01*
G01X20263Y12262D01*
G01X19063Y12262D01*
G01X19063Y10862D01*
G37*
G36*
G01X39540Y10862D02*
G01X40739Y10862D01*
G01X40739Y12262D01*
G01X39540Y12262D01*
G01X39540Y10862D01*
G37*
G36*
G01X42939Y10862D02*
G01X44139Y10862D01*
G01X44139Y12262D01*
G01X42939Y12262D01*
G01X42939Y10862D01*
G37*
G36*
G01X63289Y10862D02*
G01X64488Y10862D01*
G01X64488Y12262D01*
G01X63289Y12262D01*
G01X63289Y10862D01*
G37*
G36*
G01X66688Y10862D02*
G01X67888Y10862D01*
G01X67888Y12262D01*
G01X66688Y12262D01*
G01X66688Y10862D01*
G37*
G36*
G01X134790Y10989D02*
G01X135989Y10989D01*
G01X135989Y12389D01*
G01X134790Y12389D01*
G01X134790Y10989D01*
G37*
G36*
G01X138189Y10989D02*
G01X139389Y10989D01*
G01X139389Y12389D01*
G01X138189Y12389D01*
G01X138189Y10989D01*
G37*
G36*
G01X206291Y10862D02*
G01X207490Y10862D01*
G01X207490Y12262D01*
G01X206291Y12262D01*
G01X206291Y10862D01*
G37*
G36*
G01X209690Y10862D02*
G01X210890Y10862D01*
G01X210890Y12262D01*
G01X209690Y12262D01*
G01X209690Y10862D01*
G37*
G36*
G01X230167Y10862D02*
G01X231366Y10862D01*
G01X231366Y12262D01*
G01X230167Y12262D01*
G01X230167Y10862D01*
G37*
G36*
G01X233566Y10862D02*
G01X234766Y10862D01*
G01X234766Y12262D01*
G01X233566Y12262D01*
G01X233566Y10862D01*
G37*
G36*
G01X253789Y10989D02*
G01X254988Y10989D01*
G01X254988Y12389D01*
G01X253789Y12389D01*
G01X253789Y10989D01*
G37*
G36*
G01X257188Y10989D02*
G01X258388Y10989D01*
G01X258388Y12389D01*
G01X257188Y12389D01*
G01X257188Y10989D01*
G37*
G36*
G01X284777Y10862D02*
G01X285976Y10862D01*
G01X285976Y12262D01*
G01X284777Y12262D01*
G01X284777Y10862D01*
G37*
G36*
G01X288176Y10862D02*
G01X289376Y10862D01*
G01X289376Y12262D01*
G01X288176Y12262D01*
G01X288176Y10862D01*
G37*
G36*
G01X304081Y10989D02*
G01X305280Y10989D01*
G01X305280Y12389D01*
G01X304081Y12389D01*
G01X304081Y10989D01*
G37*
G36*
G01X307480Y10989D02*
G01X308680Y10989D01*
G01X308680Y12389D01*
G01X307480Y12389D01*
G01X307480Y10989D01*
G37*
G36*
G01X322750Y10862D02*
G01X323949Y10862D01*
G01X323949Y12262D01*
G01X322750Y12262D01*
G01X322750Y10862D01*
G37*
G36*
G01X326149Y10862D02*
G01X327349Y10862D01*
G01X327349Y12262D01*
G01X326149Y12262D01*
G01X326149Y10862D01*
G37*
G36*
G01X25316Y29912D02*
G01X26515Y29912D01*
G01X26515Y31312D01*
G01X25316Y31312D01*
G01X25316Y29912D01*
G37*
G36*
G01X28715Y29912D02*
G01X29915Y29912D01*
G01X29915Y31312D01*
G01X28715Y31312D01*
G01X28715Y29912D01*
G37*
G36*
G01X56050Y29912D02*
G01X57249Y29912D01*
G01X57249Y31312D01*
G01X56050Y31312D01*
G01X56050Y29912D01*
G37*
G36*
G01X59449Y29912D02*
G01X60649Y29912D01*
G01X60649Y31312D01*
G01X59449Y31312D01*
G01X59449Y29912D01*
G37*
G36*
G01X75354Y30039D02*
G01X76553Y30039D01*
G01X76553Y31439D01*
G01X75354Y31439D01*
G01X75354Y30039D01*
G37*
G36*
G01X78753Y30039D02*
G01X79953Y30039D01*
G01X79953Y31439D01*
G01X78753Y31439D01*
G01X78753Y30039D01*
G37*
G36*
G01X94404Y29912D02*
G01X95603Y29912D01*
G01X95603Y31312D01*
G01X94404Y31312D01*
G01X94404Y29912D01*
G37*
G36*
G01X97803Y29912D02*
G01X99003Y29912D01*
G01X99003Y31312D01*
G01X97803Y31312D01*
G01X97803Y29912D01*
G37*
G36*
G01X113581Y29912D02*
G01X114780Y29912D01*
G01X114780Y31312D01*
G01X113581Y31312D01*
G01X113581Y29912D01*
G37*
G36*
G01X116980Y29912D02*
G01X118180Y29912D01*
G01X118180Y31312D01*
G01X116980Y31312D01*
G01X116980Y29912D01*
G37*
G36*
G01X132758Y30039D02*
G01X133957Y30039D01*
G01X133957Y31439D01*
G01X132758Y31439D01*
G01X132758Y30039D01*
G37*
G36*
G01X136157Y30039D02*
G01X137357Y30039D01*
G01X137357Y31439D01*
G01X136157Y31439D01*
G01X136157Y30039D01*
G37*
G36*
G01X151681Y29912D02*
G01X152880Y29912D01*
G01X152880Y31312D01*
G01X151681Y31312D01*
G01X151681Y29912D01*
G37*
G36*
G01X155080Y29912D02*
G01X156280Y29912D01*
G01X156280Y31312D01*
G01X155080Y31312D01*
G01X155080Y29912D01*
G37*
G36*
G01X170731Y29912D02*
G01X171930Y29912D01*
G01X171930Y31312D01*
G01X170731Y31312D01*
G01X170731Y29912D01*
G37*
G36*
G01X174130Y29912D02*
G01X175330Y29912D01*
G01X175330Y31312D01*
G01X174130Y31312D01*
G01X174130Y29912D01*
G37*
G36*
G01X189654Y30039D02*
G01X190853Y30039D01*
G01X190853Y31439D01*
G01X189654Y31439D01*
G01X189654Y30039D01*
G37*
G36*
G01X193053Y30039D02*
G01X194253Y30039D01*
G01X194253Y31439D01*
G01X193053Y31439D01*
G01X193053Y30039D01*
G37*
G36*
G01X208958Y29912D02*
G01X210157Y29912D01*
G01X210157Y31312D01*
G01X208958Y31312D01*
G01X208958Y29912D01*
G37*
G36*
G01X212357Y29912D02*
G01X213557Y29912D01*
G01X213557Y31312D01*
G01X212357Y31312D01*
G01X212357Y29912D01*
G37*
G36*
G01X227754Y29912D02*
G01X228953Y29912D01*
G01X228953Y31312D01*
G01X227754Y31312D01*
G01X227754Y29912D01*
G37*
G36*
G01X231153Y29912D02*
G01X232353Y29912D01*
G01X232353Y31312D01*
G01X231153Y31312D01*
G01X231153Y29912D01*
G37*
G36*
G01X263568Y30039D02*
G01X264767Y30039D01*
G01X264767Y31439D01*
G01X263568Y31439D01*
G01X263568Y30039D01*
G37*
G36*
G01X266967Y30039D02*
G01X268167Y30039D01*
G01X268167Y31439D01*
G01X266967Y31439D01*
G01X266967Y30039D01*
G37*
G36*
G01X303827Y29785D02*
G01X305026Y29785D01*
G01X305026Y31185D01*
G01X303827Y31185D01*
G01X303827Y29785D01*
G37*
G36*
G01X307226Y29785D02*
G01X308426Y29785D01*
G01X308426Y31185D01*
G01X307226Y31185D01*
G01X307226Y29785D01*
G37*
G36*
G01X322877Y68012D02*
G01X324076Y68012D01*
G01X324076Y69412D01*
G01X322877Y69412D01*
G01X322877Y68012D01*
G37*
G36*
G01X326276Y68012D02*
G01X327476Y68012D01*
G01X327476Y69412D01*
G01X326276Y69412D01*
G01X326276Y68012D01*
G37*
G36*
G01X303700Y67885D02*
G01X304899Y67885D01*
G01X304899Y69285D01*
G01X303700Y69285D01*
G01X303700Y67885D01*
G37*
G36*
G01X307099Y67885D02*
G01X308299Y67885D01*
G01X308299Y69285D01*
G01X307099Y69285D01*
G01X307099Y67885D01*
G37*
G36*
G01X268521Y48962D02*
G01X269720Y48962D01*
G01X269720Y50362D01*
G01X268521Y50362D01*
G01X268521Y48962D01*
G37*
G36*
G01X271920Y48962D02*
G01X273120Y48962D01*
G01X273120Y50362D01*
G01X271920Y50362D01*
G01X271920Y48962D01*
G37*
G36*
G01X237025Y48962D02*
G01X238224Y48962D01*
G01X238224Y50362D01*
G01X237025Y50362D01*
G01X237025Y48962D01*
G37*
G36*
G01X240424Y48962D02*
G01X241624Y48962D01*
G01X241624Y50362D01*
G01X240424Y50362D01*
G01X240424Y48962D01*
G37*
G36*
G01X218229Y49089D02*
G01X219428Y49089D01*
G01X219428Y50489D01*
G01X218229Y50489D01*
G01X218229Y49089D01*
G37*
G36*
G01X221628Y49089D02*
G01X222828Y49089D01*
G01X222828Y50489D01*
G01X221628Y50489D01*
G01X221628Y49089D01*
G37*
G36*
G01X199179Y48962D02*
G01X200378Y48962D01*
G01X200378Y50362D01*
G01X199179Y50362D01*
G01X199179Y48962D01*
G37*
G36*
G01X202578Y48962D02*
G01X203778Y48962D01*
G01X203778Y50362D01*
G01X202578Y50362D01*
G01X202578Y48962D01*
G37*
G36*
G01X180002Y49089D02*
G01X181201Y49089D01*
G01X181201Y50489D01*
G01X180002Y50489D01*
G01X180002Y49089D01*
G37*
G36*
G01X183401Y49089D02*
G01X184601Y49089D01*
G01X184601Y50489D01*
G01X183401Y50489D01*
G01X183401Y49089D01*
G37*
G36*
G01X160825Y48962D02*
G01X162024Y48962D01*
G01X162024Y50362D01*
G01X160825Y50362D01*
G01X160825Y48962D01*
G37*
G36*
G01X164224Y48962D02*
G01X165424Y48962D01*
G01X165424Y50362D01*
G01X164224Y50362D01*
G01X164224Y48962D01*
G37*
G36*
G01X141902Y48962D02*
G01X143101Y48962D01*
G01X143101Y50362D01*
G01X141902Y50362D01*
G01X141902Y48962D01*
G37*
G36*
G01X145301Y48962D02*
G01X146501Y48962D01*
G01X146501Y50362D01*
G01X145301Y50362D01*
G01X145301Y48962D01*
G37*
G36*
G01X122979Y48962D02*
G01X124178Y48962D01*
G01X124178Y50362D01*
G01X122979Y50362D01*
G01X122979Y48962D01*
G37*
G36*
G01X126378Y48962D02*
G01X127578Y48962D01*
G01X127578Y50362D01*
G01X126378Y50362D01*
G01X126378Y48962D01*
G37*
G36*
G01X103802Y48962D02*
G01X105001Y48962D01*
G01X105001Y50362D01*
G01X103802Y50362D01*
G01X103802Y48962D01*
G37*
G36*
G01X107201Y48962D02*
G01X108401Y48962D01*
G01X108401Y50362D01*
G01X107201Y50362D01*
G01X107201Y48962D01*
G37*
G36*
G01X84879Y48962D02*
G01X86078Y48962D01*
G01X86078Y50362D01*
G01X84879Y50362D01*
G01X84879Y48962D01*
G37*
G36*
G01X88278Y48962D02*
G01X89478Y48962D01*
G01X89478Y50362D01*
G01X88278Y50362D01*
G01X88278Y48962D01*
G37*
G36*
G01X66083Y49089D02*
G01X67282Y49089D01*
G01X67282Y50489D01*
G01X66083Y50489D01*
G01X66083Y49089D01*
G37*
G36*
G01X69482Y49089D02*
G01X70682Y49089D01*
G01X70682Y50489D01*
G01X69482Y50489D01*
G01X69482Y49089D01*
G37*
G36*
G01X47033Y48962D02*
G01X48232Y48962D01*
G01X48232Y50362D01*
G01X47033Y50362D01*
G01X47033Y48962D01*
G37*
G36*
G01X50432Y48962D02*
G01X51632Y48962D01*
G01X51632Y50362D01*
G01X50432Y50362D01*
G01X50432Y48962D01*
G37*
G36*
G01X20490Y49089D02*
G01X21689Y49089D01*
G01X21689Y50489D01*
G01X20490Y50489D01*
G01X20490Y49089D01*
G37*
G36*
G01X23889Y49089D02*
G01X25089Y49089D01*
G01X25089Y50489D01*
G01X23889Y50489D01*
G01X23889Y49089D01*
G37*
G36*
G01X18331Y68139D02*
G01X19530Y68139D01*
G01X19530Y69539D01*
G01X18331Y69539D01*
G01X18331Y68139D01*
G37*
G36*
G01X21730Y68139D02*
G01X22930Y68139D01*
G01X22930Y69539D01*
G01X21730Y69539D01*
G01X21730Y68139D01*
G37*
G36*
G01X42334Y68012D02*
G01X43533Y68012D01*
G01X43533Y69412D01*
G01X42334Y69412D01*
G01X42334Y68012D01*
G37*
G36*
G01X45733Y68012D02*
G01X46933Y68012D01*
G01X46933Y69412D01*
G01X45733Y69412D01*
G01X45733Y68012D01*
G37*
G36*
G01X60876Y68139D02*
G01X62075Y68139D01*
G01X62075Y69539D01*
G01X60876Y69539D01*
G01X60876Y68139D01*
G37*
G36*
G01X64275Y68139D02*
G01X65475Y68139D01*
G01X65475Y69539D01*
G01X64275Y69539D01*
G01X64275Y68139D01*
G37*
G36*
G01X79926Y68266D02*
G01X81125Y68266D01*
G01X81125Y69666D01*
G01X79926Y69666D01*
G01X79926Y68266D01*
G37*
G36*
G01X83325Y68266D02*
G01X84525Y68266D01*
G01X84525Y69666D01*
G01X83325Y69666D01*
G01X83325Y68266D01*
G37*
G36*
G01X99865Y68139D02*
G01X101064Y68139D01*
G01X101064Y69539D01*
G01X99865Y69539D01*
G01X99865Y68139D01*
G37*
G36*
G01X103264Y68139D02*
G01X104464Y68139D01*
G01X104464Y69539D01*
G01X103264Y69539D01*
G01X103264Y68139D01*
G37*
G36*
G01X118534Y68139D02*
G01X119733Y68139D01*
G01X119733Y69539D01*
G01X118534Y69539D01*
G01X118534Y68139D01*
G37*
G36*
G01X121933Y68139D02*
G01X123133Y68139D01*
G01X123133Y69539D01*
G01X121933Y69539D01*
G01X121933Y68139D01*
G37*
G36*
G01X137965Y68139D02*
G01X139164Y68139D01*
G01X139164Y69539D01*
G01X137965Y69539D01*
G01X137965Y68139D01*
G37*
G36*
G01X141364Y68139D02*
G01X142564Y68139D01*
G01X142564Y69539D01*
G01X141364Y69539D01*
G01X141364Y68139D01*
G37*
G36*
G01X156507Y68266D02*
G01X157706Y68266D01*
G01X157706Y69666D01*
G01X156507Y69666D01*
G01X156507Y68266D01*
G37*
G36*
G01X159906Y68266D02*
G01X161106Y68266D01*
G01X161106Y69666D01*
G01X159906Y69666D01*
G01X159906Y68266D01*
G37*
G36*
G01X175303Y68266D02*
G01X176502Y68266D01*
G01X176502Y69666D01*
G01X175303Y69666D01*
G01X175303Y68266D01*
G37*
G36*
G01X178702Y68266D02*
G01X179902Y68266D01*
G01X179902Y69666D01*
G01X178702Y69666D01*
G01X178702Y68266D01*
G37*
G36*
G01X194480Y68139D02*
G01X195679Y68139D01*
G01X195679Y69539D01*
G01X194480Y69539D01*
G01X194480Y68139D01*
G37*
G36*
G01X197879Y68139D02*
G01X199079Y68139D01*
G01X199079Y69539D01*
G01X197879Y69539D01*
G01X197879Y68139D01*
G37*
G36*
G01X213784Y68139D02*
G01X214983Y68139D01*
G01X214983Y69539D01*
G01X213784Y69539D01*
G01X213784Y68139D01*
G37*
G36*
G01X217183Y68139D02*
G01X218383Y68139D01*
G01X218383Y69539D01*
G01X217183Y69539D01*
G01X217183Y68139D01*
G37*
G36*
G01X232580Y68139D02*
G01X233779Y68139D01*
G01X233779Y69539D01*
G01X232580Y69539D01*
G01X232580Y68139D01*
G37*
G36*
G01X235979Y68139D02*
G01X237179Y68139D01*
G01X237179Y69539D01*
G01X235979Y69539D01*
G01X235979Y68139D01*
G37*
G36*
G01X251376Y68139D02*
G01X252575Y68139D01*
G01X252575Y69539D01*
G01X251376Y69539D01*
G01X251376Y68139D01*
G37*
G36*
G01X254775Y68139D02*
G01X255975Y68139D01*
G01X255975Y69539D01*
G01X254775Y69539D01*
G01X254775Y68139D01*
G37*
G36*
G01X275252Y68012D02*
G01X276451Y68012D01*
G01X276451Y69412D01*
G01X275252Y69412D01*
G01X275252Y68012D01*
G37*
G36*
G01X278651Y68012D02*
G01X279851Y68012D01*
G01X279851Y69412D01*
G01X278651Y69412D01*
G01X278651Y68012D01*
G37*
G36*
G01X323258Y87062D02*
G01X324457Y87062D01*
G01X324457Y88462D01*
G01X323258Y88462D01*
G01X323258Y87062D01*
G37*
G36*
G01X326657Y87062D02*
G01X327857Y87062D01*
G01X327857Y88462D01*
G01X326657Y88462D01*
G01X326657Y87062D01*
G37*
G36*
G01X14140Y87316D02*
G01X15339Y87316D01*
G01X15339Y88716D01*
G01X14140Y88716D01*
G01X14140Y87316D01*
G37*
G36*
G01X17539Y87316D02*
G01X18739Y87316D01*
G01X18739Y88716D01*
G01X17539Y88716D01*
G01X17539Y87316D01*
G37*
G36*
G01X33571Y87570D02*
G01X34770Y87570D01*
G01X34770Y88970D01*
G01X33571Y88970D01*
G01X33571Y87570D01*
G37*
G36*
G01X36970Y87570D02*
G01X38170Y87570D01*
G01X38170Y88970D01*
G01X36970Y88970D01*
G01X36970Y87570D01*
G37*
G36*
G01X52240Y87316D02*
G01X53439Y87316D01*
G01X53439Y88716D01*
G01X52240Y88716D01*
G01X52240Y87316D01*
G37*
G36*
G01X55639Y87316D02*
G01X56839Y87316D01*
G01X56839Y88716D01*
G01X55639Y88716D01*
G01X55639Y87316D01*
G37*
G36*
G01X70782Y87316D02*
G01X71981Y87316D01*
G01X71981Y88716D01*
G01X70782Y88716D01*
G01X70782Y87316D01*
G37*
G36*
G01X74181Y87316D02*
G01X75381Y87316D01*
G01X75381Y88716D01*
G01X74181Y88716D01*
G01X74181Y87316D01*
G37*
G36*
G01X89832Y87189D02*
G01X91031Y87189D01*
G01X91031Y88589D01*
G01X89832Y88589D01*
G01X89832Y87189D01*
G37*
G36*
G01X93231Y87189D02*
G01X94431Y87189D01*
G01X94431Y88589D01*
G01X93231Y88589D01*
G01X93231Y87189D01*
G37*
G36*
G01X108628Y87062D02*
G01X109827Y87062D01*
G01X109827Y88462D01*
G01X108628Y88462D01*
G01X108628Y87062D01*
G37*
G36*
G01X112027Y87062D02*
G01X113227Y87062D01*
G01X113227Y88462D01*
G01X112027Y88462D01*
G01X112027Y87062D01*
G37*
G36*
G01X127932Y87189D02*
G01X129131Y87189D01*
G01X129131Y88589D01*
G01X127932Y88589D01*
G01X127932Y87189D01*
G37*
G36*
G01X131331Y87189D02*
G01X132531Y87189D01*
G01X132531Y88589D01*
G01X131331Y88589D01*
G01X131331Y87189D01*
G37*
G36*
G01X146982Y87062D02*
G01X148181Y87062D01*
G01X148181Y88462D01*
G01X146982Y88462D01*
G01X146982Y87062D01*
G37*
G36*
G01X150381Y87062D02*
G01X151581Y87062D01*
G01X151581Y88462D01*
G01X150381Y88462D01*
G01X150381Y87062D01*
G37*
G36*
G01X166032Y87189D02*
G01X167231Y87189D01*
G01X167231Y88589D01*
G01X166032Y88589D01*
G01X166032Y87189D01*
G37*
G36*
G01X169431Y87189D02*
G01X170631Y87189D01*
G01X170631Y88589D01*
G01X169431Y88589D01*
G01X169431Y87189D01*
G37*
G36*
G01X184955Y87189D02*
G01X186154Y87189D01*
G01X186154Y88589D01*
G01X184955Y88589D01*
G01X184955Y87189D01*
G37*
G36*
G01X188354Y87189D02*
G01X189554Y87189D01*
G01X189554Y88589D01*
G01X188354Y88589D01*
G01X188354Y87189D01*
G37*
G36*
G01X204005Y87189D02*
G01X205204Y87189D01*
G01X205204Y88589D01*
G01X204005Y88589D01*
G01X204005Y87189D01*
G37*
G36*
G01X207404Y87189D02*
G01X208604Y87189D01*
G01X208604Y88589D01*
G01X207404Y88589D01*
G01X207404Y87189D01*
G37*
G36*
G01X223309Y87062D02*
G01X224508Y87062D01*
G01X224508Y88462D01*
G01X223309Y88462D01*
G01X223309Y87062D01*
G37*
G36*
G01X226708Y87062D02*
G01X227908Y87062D01*
G01X227908Y88462D01*
G01X226708Y88462D01*
G01X226708Y87062D01*
G37*
G36*
G01X242232Y87062D02*
G01X243431Y87062D01*
G01X243431Y88462D01*
G01X242232Y88462D01*
G01X242232Y87062D01*
G37*
G36*
G01X245631Y87062D02*
G01X246831Y87062D01*
G01X246831Y88462D01*
G01X245631Y88462D01*
G01X245631Y87062D01*
G37*
G36*
G01X270680Y87189D02*
G01X271879Y87189D01*
G01X271879Y88589D01*
G01X270680Y88589D01*
G01X270680Y87189D01*
G37*
G36*
G01X274079Y87189D02*
G01X275279Y87189D01*
G01X275279Y88589D01*
G01X274079Y88589D01*
G01X274079Y87189D01*
G37*
G36*
G01X304208Y87062D02*
G01X305407Y87062D01*
G01X305407Y88462D01*
G01X304208Y88462D01*
G01X304208Y87062D01*
G37*
G36*
G01X307607Y87062D02*
G01X308807Y87062D01*
G01X308807Y88462D01*
G01X307607Y88462D01*
G01X307607Y87062D01*
G37*
G36*
G01X306129Y57054D02*
G01X305129Y57054D01*
G01X305129Y55954D01*
G01X306129Y55954D01*
G01X306129Y57054D01*
G37*
G36*
G01X304729Y57054D02*
G01X303729Y57054D01*
G01X303729Y55954D01*
G01X304729Y55954D01*
G01X304729Y57054D01*
G37*
G36*
G01X325479Y18804D02*
G01X325479Y23004D01*
G01X323679Y23004D01*
G01X323679Y18804D01*
G01X325479Y18804D01*
G37*
G36*
G01X322279Y18804D02*
G01X322279Y23004D01*
G01X320479Y23004D01*
G01X320479Y18804D01*
G01X322279Y18804D01*
G37*
G36*
G01X289729Y31229D02*
G01X288229Y31229D01*
G01X288229Y27729D01*
G01X289729Y27729D01*
G01X289729Y31229D01*
G37*
G36*
G01X279029Y31229D02*
G01X277529Y31229D01*
G01X277529Y27729D01*
G01X279029Y27729D01*
G01X279029Y31229D01*
G37*
G36*
G01X287177Y26183D02*
G01X286177Y26183D01*
G01X286177Y21583D01*
G01X287177Y21583D01*
G01X287177Y26183D01*
G37*
G36*
G01X285145Y26183D02*
G01X284145Y26183D01*
G01X284145Y21583D01*
G01X285145Y21583D01*
G01X285145Y26183D01*
G37*
G36*
G01X283113Y26183D02*
G01X282113Y26183D01*
G01X282113Y21583D01*
G01X283113Y21583D01*
G01X283113Y26183D01*
G37*
G36*
G01X281208Y26183D02*
G01X280208Y26183D01*
G01X280208Y21583D01*
G01X281208Y21583D01*
G01X281208Y26183D01*
G37*
G36*
G01X207061Y84562D02*
G01X209612Y84562D01*
G01X209612Y81563D01*
G01X207061Y81563D01*
G01X207061Y84562D01*
G37*
G36*
G01X193091Y82022D02*
G01X195642Y82022D01*
G01X195642Y79023D01*
G01X193091Y79023D01*
G01X193091Y82022D01*
G37*
G36*
G01X35611Y84562D02*
G01X38162Y84562D01*
G01X38162Y81563D01*
G01X35611Y81563D01*
G01X35611Y84562D01*
G37*
G36*
G01X21641Y82022D02*
G01X24192Y82022D01*
G01X24192Y79023D01*
G01X21641Y79023D01*
G01X21641Y82022D01*
G37*
G36*
G01X54661Y84562D02*
G01X57212Y84562D01*
G01X57212Y81563D01*
G01X54661Y81563D01*
G01X54661Y84562D01*
G37*
G36*
G01X40691Y82022D02*
G01X43242Y82022D01*
G01X43242Y79023D01*
G01X40691Y79023D01*
G01X40691Y82022D01*
G37*
G36*
G01X73711Y84562D02*
G01X76262Y84562D01*
G01X76262Y81563D01*
G01X73711Y81563D01*
G01X73711Y84562D01*
G37*
G36*
G01X59741Y82022D02*
G01X62292Y82022D01*
G01X62292Y79023D01*
G01X59741Y79023D01*
G01X59741Y82022D01*
G37*
G36*
G01X92761Y84562D02*
G01X95312Y84562D01*
G01X95312Y81563D01*
G01X92761Y81563D01*
G01X92761Y84562D01*
G37*
G36*
G01X78791Y82022D02*
G01X81342Y82022D01*
G01X81342Y79023D01*
G01X78791Y79023D01*
G01X78791Y82022D01*
G37*
G36*
G01X111811Y84562D02*
G01X114362Y84562D01*
G01X114362Y81563D01*
G01X111811Y81563D01*
G01X111811Y84562D01*
G37*
G36*
G01X97841Y82022D02*
G01X100392Y82022D01*
G01X100392Y79023D01*
G01X97841Y79023D01*
G01X97841Y82022D01*
G37*
G36*
G01X130861Y84562D02*
G01X133412Y84562D01*
G01X133412Y81563D01*
G01X130861Y81563D01*
G01X130861Y84562D01*
G37*
G36*
G01X116891Y82022D02*
G01X119442Y82022D01*
G01X119442Y79023D01*
G01X116891Y79023D01*
G01X116891Y82022D01*
G37*
G36*
G01X149911Y84562D02*
G01X152462Y84562D01*
G01X152462Y81563D01*
G01X149911Y81563D01*
G01X149911Y84562D01*
G37*
G36*
G01X135941Y82022D02*
G01X138492Y82022D01*
G01X138492Y79023D01*
G01X135941Y79023D01*
G01X135941Y82022D01*
G37*
G36*
G01X168961Y84562D02*
G01X171512Y84562D01*
G01X171512Y81563D01*
G01X168961Y81563D01*
G01X168961Y84562D01*
G37*
G36*
G01X154991Y82022D02*
G01X157542Y82022D01*
G01X157542Y79023D01*
G01X154991Y79023D01*
G01X154991Y82022D01*
G37*
G36*
G01X188011Y84562D02*
G01X190562Y84562D01*
G01X190562Y81563D01*
G01X188011Y81563D01*
G01X188011Y84562D01*
G37*
G36*
G01X174041Y82022D02*
G01X176592Y82022D01*
G01X176592Y79023D01*
G01X174041Y79023D01*
G01X174041Y82022D01*
G37*
G36*
G01X16561Y84562D02*
G01X19112Y84562D01*
G01X19112Y81563D01*
G01X16561Y81563D01*
G01X16561Y84562D01*
G37*
G36*
G01X2591Y82022D02*
G01X5142Y82022D01*
G01X5142Y79023D01*
G01X2591Y79023D01*
G01X2591Y82022D01*
G37*
G36*
G01X226111Y84562D02*
G01X228662Y84562D01*
G01X228662Y81563D01*
G01X226111Y81563D01*
G01X226111Y84562D01*
G37*
G36*
G01X212141Y82022D02*
G01X214692Y82022D01*
G01X214692Y79023D01*
G01X212141Y79023D01*
G01X212141Y82022D01*
G37*
G36*
G01X245161Y84562D02*
G01X247712Y84562D01*
G01X247712Y81563D01*
G01X245161Y81563D01*
G01X245161Y84562D01*
G37*
G36*
G01X231191Y82022D02*
G01X233742Y82022D01*
G01X233742Y79023D01*
G01X231191Y79023D01*
G01X231191Y82022D01*
G37*
G36*
G01X307061Y84562D02*
G01X309611Y84562D01*
G01X309611Y81563D01*
G01X307061Y81563D01*
G01X307061Y84562D01*
G37*
G36*
G01X293091Y82022D02*
G01X295641Y82022D01*
G01X295641Y79023D01*
G01X293091Y79023D01*
G01X293091Y82022D01*
G37*
G36*
G01X45136Y65512D02*
G01X47687Y65512D01*
G01X47687Y62513D01*
G01X45136Y62513D01*
G01X45136Y65512D01*
G37*
G36*
G01X31166Y62972D02*
G01X33717Y62972D01*
G01X33717Y59973D01*
G01X31166Y59973D01*
G01X31166Y62972D01*
G37*
G36*
G01X64186Y65512D02*
G01X66737Y65512D01*
G01X66737Y62513D01*
G01X64186Y62513D01*
G01X64186Y65512D01*
G37*
G36*
G01X50216Y62972D02*
G01X52767Y62972D01*
G01X52767Y59973D01*
G01X50216Y59973D01*
G01X50216Y62972D01*
G37*
G36*
G01X83236Y65512D02*
G01X85787Y65512D01*
G01X85787Y62513D01*
G01X83236Y62513D01*
G01X83236Y65512D01*
G37*
G36*
G01X69266Y62972D02*
G01X71817Y62972D01*
G01X71817Y59973D01*
G01X69266Y59973D01*
G01X69266Y62972D01*
G37*
G36*
G01X102286Y65512D02*
G01X104837Y65512D01*
G01X104837Y62513D01*
G01X102286Y62513D01*
G01X102286Y65512D01*
G37*
G36*
G01X88316Y62972D02*
G01X90867Y62972D01*
G01X90867Y59973D01*
G01X88316Y59973D01*
G01X88316Y62972D01*
G37*
G36*
G01X121336Y65512D02*
G01X123887Y65512D01*
G01X123887Y62513D01*
G01X121336Y62513D01*
G01X121336Y65512D01*
G37*
G36*
G01X107366Y62972D02*
G01X109917Y62972D01*
G01X109917Y59973D01*
G01X107366Y59973D01*
G01X107366Y62972D01*
G37*
G36*
G01X140386Y65512D02*
G01X142937Y65512D01*
G01X142937Y62513D01*
G01X140386Y62513D01*
G01X140386Y65512D01*
G37*
G36*
G01X126416Y62972D02*
G01X128967Y62972D01*
G01X128967Y59973D01*
G01X126416Y59973D01*
G01X126416Y62972D01*
G37*
G36*
G01X159436Y65512D02*
G01X161987Y65512D01*
G01X161987Y62513D01*
G01X159436Y62513D01*
G01X159436Y65512D01*
G37*
G36*
G01X145466Y62972D02*
G01X148017Y62972D01*
G01X148017Y59973D01*
G01X145466Y59973D01*
G01X145466Y62972D01*
G37*
G36*
G01X178486Y65512D02*
G01X181037Y65512D01*
G01X181037Y62513D01*
G01X178486Y62513D01*
G01X178486Y65512D01*
G37*
G36*
G01X164516Y62972D02*
G01X167067Y62972D01*
G01X167067Y59973D01*
G01X164516Y59973D01*
G01X164516Y62972D01*
G37*
G36*
G01X197536Y65512D02*
G01X200087Y65512D01*
G01X200087Y62513D01*
G01X197536Y62513D01*
G01X197536Y65512D01*
G37*
G36*
G01X183566Y62972D02*
G01X186117Y62972D01*
G01X186117Y59973D01*
G01X183566Y59973D01*
G01X183566Y62972D01*
G37*
G36*
G01X216586Y65512D02*
G01X219137Y65512D01*
G01X219137Y62513D01*
G01X216586Y62513D01*
G01X216586Y65512D01*
G37*
G36*
G01X202616Y62972D02*
G01X205167Y62972D01*
G01X205167Y59973D01*
G01X202616Y59973D01*
G01X202616Y62972D01*
G37*
G36*
G01X235636Y65512D02*
G01X238187Y65512D01*
G01X238187Y62513D01*
G01X235636Y62513D01*
G01X235636Y65512D01*
G37*
G36*
G01X221666Y62972D02*
G01X224217Y62972D01*
G01X224217Y59973D01*
G01X221666Y59973D01*
G01X221666Y62972D01*
G37*
G36*
G01X254686Y65512D02*
G01X257237Y65512D01*
G01X257237Y62513D01*
G01X254686Y62513D01*
G01X254686Y65512D01*
G37*
G36*
G01X240716Y62972D02*
G01X243267Y62972D01*
G01X243267Y59973D01*
G01X240716Y59973D01*
G01X240716Y62972D01*
G37*
G36*
G01X326111Y84562D02*
G01X328661Y84562D01*
G01X328661Y81563D01*
G01X326111Y81563D01*
G01X326111Y84562D01*
G37*
G36*
G01X312141Y82022D02*
G01X314691Y82022D01*
G01X314691Y79023D01*
G01X312141Y79023D01*
G01X312141Y82022D01*
G37*
G36*
G01X49912Y46462D02*
G01X52462Y46462D01*
G01X52462Y43463D01*
G01X49912Y43463D01*
G01X49912Y46462D01*
G37*
G36*
G01X35942Y43922D02*
G01X38492Y43922D01*
G01X38492Y40923D01*
G01X35942Y40923D01*
G01X35942Y43922D01*
G37*
G36*
G01X68962Y46462D02*
G01X71512Y46462D01*
G01X71512Y43463D01*
G01X68962Y43463D01*
G01X68962Y46462D01*
G37*
G36*
G01X54992Y43922D02*
G01X57542Y43922D01*
G01X57542Y40923D01*
G01X54992Y40923D01*
G01X54992Y43922D01*
G37*
G36*
G01X88012Y46462D02*
G01X90562Y46462D01*
G01X90562Y43463D01*
G01X88012Y43463D01*
G01X88012Y46462D01*
G37*
G36*
G01X74042Y43922D02*
G01X76592Y43922D01*
G01X76592Y40923D01*
G01X74042Y40923D01*
G01X74042Y43922D01*
G37*
G36*
G01X107062Y46462D02*
G01X109612Y46462D01*
G01X109612Y43463D01*
G01X107062Y43463D01*
G01X107062Y46462D01*
G37*
G36*
G01X93092Y43922D02*
G01X95642Y43922D01*
G01X95642Y40923D01*
G01X93092Y40923D01*
G01X93092Y43922D01*
G37*
G36*
G01X126112Y46462D02*
G01X128662Y46462D01*
G01X128662Y43463D01*
G01X126112Y43463D01*
G01X126112Y46462D01*
G37*
G36*
G01X112142Y43922D02*
G01X114692Y43922D01*
G01X114692Y40923D01*
G01X112142Y40923D01*
G01X112142Y43922D01*
G37*
G36*
G01X145162Y46462D02*
G01X147712Y46462D01*
G01X147712Y43463D01*
G01X145162Y43463D01*
G01X145162Y46462D01*
G37*
G36*
G01X131192Y43922D02*
G01X133742Y43922D01*
G01X133742Y40923D01*
G01X131192Y40923D01*
G01X131192Y43922D01*
G37*
G36*
G01X164212Y46462D02*
G01X166762Y46462D01*
G01X166762Y43463D01*
G01X164212Y43463D01*
G01X164212Y46462D01*
G37*
G36*
G01X150242Y43922D02*
G01X152792Y43922D01*
G01X152792Y40923D01*
G01X150242Y40923D01*
G01X150242Y43922D01*
G37*
G36*
G01X183262Y46462D02*
G01X185812Y46462D01*
G01X185812Y43463D01*
G01X183262Y43463D01*
G01X183262Y46462D01*
G37*
G36*
G01X169292Y43922D02*
G01X171842Y43922D01*
G01X171842Y40923D01*
G01X169292Y40923D01*
G01X169292Y43922D01*
G37*
G36*
G01X202312Y46462D02*
G01X204862Y46462D01*
G01X204862Y43463D01*
G01X202312Y43463D01*
G01X202312Y46462D01*
G37*
G36*
G01X188342Y43922D02*
G01X190892Y43922D01*
G01X190892Y40923D01*
G01X188342Y40923D01*
G01X188342Y43922D01*
G37*
G36*
G01X221362Y46462D02*
G01X223912Y46462D01*
G01X223912Y43463D01*
G01X221362Y43463D01*
G01X221362Y46462D01*
G37*
G36*
G01X207392Y43922D02*
G01X209942Y43922D01*
G01X209942Y40923D01*
G01X207392Y40923D01*
G01X207392Y43922D01*
G37*
G36*
G01X240412Y46462D02*
G01X242962Y46462D01*
G01X242962Y43463D01*
G01X240412Y43463D01*
G01X240412Y46462D01*
G37*
G36*
G01X226442Y43922D02*
G01X228992Y43922D01*
G01X228992Y40923D01*
G01X226442Y40923D01*
G01X226442Y43922D01*
G37*
G36*
G01X59487Y27412D02*
G01X62038Y27412D01*
G01X62038Y24413D01*
G01X59487Y24413D01*
G01X59487Y27412D01*
G37*
G36*
G01X45517Y24872D02*
G01X48068Y24872D01*
G01X48068Y21873D01*
G01X45517Y21873D01*
G01X45517Y24872D01*
G37*
G36*
G01X78474Y27414D02*
G01X81024Y27414D01*
G01X81024Y24415D01*
G01X78474Y24415D01*
G01X78474Y27414D01*
G37*
G36*
G01X64504Y24874D02*
G01X67054Y24874D01*
G01X67054Y21875D01*
G01X64504Y21875D01*
G01X64504Y24874D01*
G37*
G36*
G01X97587Y27412D02*
G01X100138Y27412D01*
G01X100138Y24413D01*
G01X97587Y24413D01*
G01X97587Y27412D01*
G37*
G36*
G01X83617Y24872D02*
G01X86168Y24872D01*
G01X86168Y21873D01*
G01X83617Y21873D01*
G01X83617Y24872D01*
G37*
G36*
G01X116637Y27412D02*
G01X119188Y27412D01*
G01X119188Y24413D01*
G01X116637Y24413D01*
G01X116637Y27412D01*
G37*
G36*
G01X102667Y24872D02*
G01X105218Y24872D01*
G01X105218Y21873D01*
G01X102667Y21873D01*
G01X102667Y24872D01*
G37*
G36*
G01X135687Y27412D02*
G01X138238Y27412D01*
G01X138238Y24413D01*
G01X135687Y24413D01*
G01X135687Y27412D01*
G37*
G36*
G01X121717Y24872D02*
G01X124268Y24872D01*
G01X124268Y21873D01*
G01X121717Y21873D01*
G01X121717Y24872D01*
G37*
G36*
G01X154737Y27412D02*
G01X157288Y27412D01*
G01X157288Y24413D01*
G01X154737Y24413D01*
G01X154737Y27412D01*
G37*
G36*
G01X140767Y24872D02*
G01X143318Y24872D01*
G01X143318Y21873D01*
G01X140767Y21873D01*
G01X140767Y24872D01*
G37*
G36*
G01X173787Y27412D02*
G01X176338Y27412D01*
G01X176338Y24413D01*
G01X173787Y24413D01*
G01X173787Y27412D01*
G37*
G36*
G01X159817Y24872D02*
G01X162368Y24872D01*
G01X162368Y21873D01*
G01X159817Y21873D01*
G01X159817Y24872D01*
G37*
G36*
G01X192837Y27412D02*
G01X195388Y27412D01*
G01X195388Y24413D01*
G01X192837Y24413D01*
G01X192837Y27412D01*
G37*
G36*
G01X178867Y24872D02*
G01X181418Y24872D01*
G01X181418Y21873D01*
G01X178867Y21873D01*
G01X178867Y24872D01*
G37*
G36*
G01X211887Y27412D02*
G01X214438Y27412D01*
G01X214438Y24413D01*
G01X211887Y24413D01*
G01X211887Y27412D01*
G37*
G36*
G01X197917Y24872D02*
G01X200468Y24872D01*
G01X200468Y21873D01*
G01X197917Y21873D01*
G01X197917Y24872D01*
G37*
G36*
G01X230937Y27412D02*
G01X233488Y27412D01*
G01X233488Y24413D01*
G01X230937Y24413D01*
G01X230937Y27412D01*
G37*
G36*
G01X216967Y24872D02*
G01X219518Y24872D01*
G01X219518Y21873D01*
G01X216967Y21873D01*
G01X216967Y24872D01*
G37*
G36*
G01X307061Y27412D02*
G01X309611Y27412D01*
G01X309611Y24413D01*
G01X307061Y24413D01*
G01X307061Y27412D01*
G37*
G36*
G01X293091Y24872D02*
G01X295641Y24872D01*
G01X295641Y21873D01*
G01X293091Y21873D01*
G01X293091Y24872D01*
G37*
G36*
G01X288011Y8362D02*
G01X290561Y8362D01*
G01X290561Y5363D01*
G01X288011Y5363D01*
G01X288011Y8362D01*
G37*
G36*
G01X274041Y5822D02*
G01X276591Y5822D01*
G01X276591Y2823D01*
G01X274041Y2823D01*
G01X274041Y5822D01*
G37*
G36*
G01X307061Y8362D02*
G01X309611Y8362D01*
G01X309611Y5363D01*
G01X307061Y5363D01*
G01X307061Y8362D01*
G37*
G36*
G01X293091Y5822D02*
G01X295641Y5822D01*
G01X295641Y2823D01*
G01X293091Y2823D01*
G01X293091Y5822D01*
G37*
G36*
G01X326111Y8362D02*
G01X328661Y8362D01*
G01X328661Y5363D01*
G01X326111Y5363D01*
G01X326111Y8362D01*
G37*
G36*
G01X312141Y5822D02*
G01X314691Y5822D01*
G01X314691Y2823D01*
G01X312141Y2823D01*
G01X312141Y5822D01*
G37*
G36*
G01X5004Y5822D02*
G01X7555Y5822D01*
G01X7555Y2823D01*
G01X5004Y2823D01*
G01X5004Y5822D01*
G37*
G36*
G01X18974Y8362D02*
G01X21525Y8362D01*
G01X21525Y5363D01*
G01X18974Y5363D01*
G01X18974Y8362D01*
G37*
G36*
G01X28753Y5822D02*
G01X31304Y5822D01*
G01X31304Y2823D01*
G01X28753Y2823D01*
G01X28753Y5822D01*
G37*
G36*
G01X42723Y8362D02*
G01X45274Y8362D01*
G01X45274Y5363D01*
G01X42723Y5363D01*
G01X42723Y8362D01*
G37*
G36*
G01X52629Y5822D02*
G01X55180Y5822D01*
G01X55180Y2823D01*
G01X52629Y2823D01*
G01X52629Y5822D01*
G37*
G36*
G01X66599Y8362D02*
G01X69150Y8362D01*
G01X69150Y5363D01*
G01X66599Y5363D01*
G01X66599Y8362D01*
G37*
G36*
G01X195504Y5822D02*
G01X198055Y5822D01*
G01X198055Y2823D01*
G01X195504Y2823D01*
G01X195504Y5822D01*
G37*
G36*
G01X209474Y8362D02*
G01X212025Y8362D01*
G01X212025Y5363D01*
G01X209474Y5363D01*
G01X209474Y8362D01*
G37*
G36*
G01X243154Y5824D02*
G01X245704Y5824D01*
G01X245704Y2825D01*
G01X243154Y2825D01*
G01X243154Y5824D01*
G37*
G36*
G01X257124Y8364D02*
G01X259674Y8364D01*
G01X259674Y5365D01*
G01X257124Y5365D01*
G01X257124Y8364D01*
G37*
G36*
G01X9729Y43922D02*
G01X12279Y43922D01*
G01X12279Y40923D01*
G01X9729Y40923D01*
G01X9729Y43922D01*
G37*
G36*
G01X23699Y46462D02*
G01X26249Y46462D01*
G01X26249Y43463D01*
G01X23699Y43463D01*
G01X23699Y46462D01*
G37*
G36*
G01X259766Y82022D02*
G01X262317Y82022D01*
G01X262317Y79023D01*
G01X259766Y79023D01*
G01X259766Y82022D01*
G37*
G36*
G01X273736Y84562D02*
G01X276287Y84562D01*
G01X276287Y81563D01*
G01X273736Y81563D01*
G01X273736Y84562D01*
G37*
G36*
G01X252654Y24872D02*
G01X255205Y24872D01*
G01X255205Y21873D01*
G01X252654Y21873D01*
G01X252654Y24872D01*
G37*
G36*
G01X266624Y27412D02*
G01X269175Y27412D01*
G01X269175Y24413D01*
G01X266624Y24413D01*
G01X266624Y27412D01*
G37*
G36*
G01X7341Y62972D02*
G01X9891Y62972D01*
G01X9891Y59973D01*
G01X7341Y59973D01*
G01X7341Y62972D01*
G37*
G36*
G01X21311Y65512D02*
G01X23861Y65512D01*
G01X23861Y62513D01*
G01X21311Y62513D01*
G01X21311Y65512D01*
G37*
G36*
G01X264592Y62972D02*
G01X267143Y62972D01*
G01X267143Y59973D01*
G01X264592Y59973D01*
G01X264592Y62972D01*
G37*
G36*
G01X278562Y65512D02*
G01X281113Y65512D01*
G01X281113Y62513D01*
G01X278562Y62513D01*
G01X278562Y65512D01*
G37*
G36*
G01X257430Y43922D02*
G01X259980Y43922D01*
G01X259980Y40923D01*
G01X257430Y40923D01*
G01X257430Y43922D01*
G37*
G36*
G01X271400Y46462D02*
G01X273950Y46462D01*
G01X273950Y43463D01*
G01X271400Y43463D01*
G01X271400Y46462D01*
G37*
G36*
G01X14529Y24872D02*
G01X17080Y24872D01*
G01X17080Y21873D01*
G01X14529Y21873D01*
G01X14529Y24872D01*
G37*
G36*
G01X28499Y27412D02*
G01X31050Y27412D01*
G01X31050Y24413D01*
G01X28499Y24413D01*
G01X28499Y27412D01*
G37*
G36*
G01X326111Y65512D02*
G01X328661Y65512D01*
G01X328661Y62513D01*
G01X326111Y62513D01*
G01X326111Y65512D01*
G37*
G36*
G01X312141Y62972D02*
G01X314691Y62972D01*
G01X314691Y59973D01*
G01X312141Y59973D01*
G01X312141Y62972D01*
G37*
G36*
G01X219253Y5822D02*
G01X221804Y5822D01*
G01X221804Y2823D01*
G01X219253Y2823D01*
G01X219253Y5822D01*
G37*
G36*
G01X233223Y8362D02*
G01X235774Y8362D01*
G01X235774Y5363D01*
G01X233223Y5363D01*
G01X233223Y8362D01*
G37*
G36*
G01X123904Y5824D02*
G01X126454Y5824D01*
G01X126454Y2825D01*
G01X123904Y2825D01*
G01X123904Y5824D01*
G37*
G36*
G01X137874Y8364D02*
G01X140424Y8364D01*
G01X140424Y5365D01*
G01X137874Y5365D01*
G01X137874Y8364D01*
G37*
G54D52*
G01X13130Y89873D03*
G01X13130Y91524D03*
G01X7330Y91524D03*
G01X7330Y89873D03*
G01X32179Y89873D03*
G01X32179Y91524D03*
G01X26380Y91524D03*
G01X26380Y89873D03*
G01X51229Y89873D03*
G01X51229Y91524D03*
G01X45430Y91524D03*
G01X45430Y89873D03*
G01X70279Y89873D03*
G01X70279Y91524D03*
G01X64479Y91524D03*
G01X64479Y89873D03*
G01X89279Y89873D03*
G01X89279Y91524D03*
G01X83479Y91524D03*
G01X83479Y89873D03*
G01X108379Y89873D03*
G01X108379Y91524D03*
G01X102579Y91524D03*
G01X102579Y89873D03*
G01X127429Y89873D03*
G01X127429Y91524D03*
G01X121629Y91524D03*
G01X121629Y89873D03*
G01X146479Y89873D03*
G01X146479Y91524D03*
G01X140679Y91524D03*
G01X140679Y89873D03*
G01X165479Y89923D03*
G01X165479Y91574D03*
G01X159679Y91574D03*
G01X159679Y89923D03*
G01X184579Y89873D03*
G01X184579Y91524D03*
G01X178779Y91524D03*
G01X178779Y89873D03*
G01X203579Y89873D03*
G01X203579Y91524D03*
G01X197779Y91524D03*
G01X197779Y89873D03*
G01X222629Y89923D03*
G01X222629Y91574D03*
G01X216829Y91574D03*
G01X216829Y89923D03*
G01X241729Y89873D03*
G01X241729Y91524D03*
G01X235929Y91524D03*
G01X235929Y89873D03*
G01X270229Y89873D03*
G01X270229Y91524D03*
G01X264429Y91524D03*
G01X264429Y89873D03*
G01X303579Y89873D03*
G01X303579Y91524D03*
G01X297779Y91524D03*
G01X297779Y89873D03*
G01X322629Y89873D03*
G01X322629Y91524D03*
G01X316829Y91524D03*
G01X316829Y89873D03*
G01X17829Y70823D03*
G01X17829Y72474D03*
G01X12030Y72474D03*
G01X12030Y70823D03*
G01X41679Y70823D03*
G01X41679Y72474D03*
G01X35879Y72474D03*
G01X35879Y70823D03*
G01X60729Y70823D03*
G01X60729Y72474D03*
G01X54929Y72474D03*
G01X54929Y70823D03*
G01X79779Y70823D03*
G01X79779Y72474D03*
G01X73979Y72474D03*
G01X73979Y70823D03*
G01X98829Y70823D03*
G01X98829Y72474D03*
G01X93029Y72474D03*
G01X93029Y70823D03*
G01X117879Y70823D03*
G01X117879Y72474D03*
G01X112079Y72474D03*
G01X112079Y70823D03*
G01X136929Y70823D03*
G01X136929Y72474D03*
G01X131129Y72474D03*
G01X131129Y70823D03*
G01X155979Y70823D03*
G01X155979Y72474D03*
G01X150179Y72474D03*
G01X150179Y70823D03*
G01X174979Y70823D03*
G01X174979Y72474D03*
G01X169179Y72474D03*
G01X169179Y70823D03*
G01X194079Y70823D03*
G01X194079Y72474D03*
G01X188279Y72474D03*
G01X188279Y70823D03*
G01X213129Y70823D03*
G01X213129Y72474D03*
G01X207329Y72474D03*
G01X207329Y70823D03*
G01X232179Y70823D03*
G01X232179Y72474D03*
G01X226379Y72474D03*
G01X226379Y70823D03*
G01X251229Y70823D03*
G01X251229Y72474D03*
G01X245429Y72474D03*
G01X245429Y70823D03*
G01X275079Y70823D03*
G01X275079Y72474D03*
G01X269279Y72474D03*
G01X269279Y70823D03*
G01X303629Y70823D03*
G01X303629Y72474D03*
G01X297829Y72474D03*
G01X297829Y70823D03*
G01X322629Y70823D03*
G01X322629Y72474D03*
G01X316829Y72474D03*
G01X316829Y70823D03*
G01X20229Y51773D03*
G01X20229Y53424D03*
G01X14430Y53424D03*
G01X14430Y51773D03*
G01X46479Y51773D03*
G01X46479Y53424D03*
G01X40679Y53424D03*
G01X40679Y51773D03*
G01X65479Y51773D03*
G01X65479Y53424D03*
G01X59679Y53424D03*
G01X59679Y51773D03*
G01X84529Y51773D03*
G01X84529Y53424D03*
G01X78729Y53424D03*
G01X78729Y51773D03*
G01X103629Y51773D03*
G01X103629Y53424D03*
G01X97829Y53424D03*
G01X97829Y51773D03*
G01X122679Y51773D03*
G01X122679Y53424D03*
G01X116879Y53424D03*
G01X116879Y51773D03*
G01X141729Y51773D03*
G01X141729Y53424D03*
G01X135929Y53424D03*
G01X135929Y51773D03*
G01X160779Y51773D03*
G01X160779Y53424D03*
G01X154979Y53424D03*
G01X154979Y51773D03*
G01X179779Y51773D03*
G01X179779Y53424D03*
G01X173979Y53424D03*
G01X173979Y51773D03*
G01X198879Y51773D03*
G01X198879Y53424D03*
G01X193079Y53424D03*
G01X193079Y51773D03*
G01X217929Y51773D03*
G01X217929Y53424D03*
G01X212129Y53424D03*
G01X212129Y51773D03*
G01X236929Y51773D03*
G01X236929Y53424D03*
G01X231129Y53424D03*
G01X231129Y51773D03*
G01X267929Y51773D03*
G01X267929Y53424D03*
G01X262129Y53424D03*
G01X262129Y51773D03*
G01X25080Y32723D03*
G01X25080Y34374D03*
G01X19279Y34374D03*
G01X19279Y32723D03*
G01X56029Y32723D03*
G01X56029Y34374D03*
G01X50229Y34374D03*
G01X50229Y32723D03*
G01X75029Y32723D03*
G01X75029Y34374D03*
G01X69229Y34374D03*
G01X69229Y32723D03*
G01X94129Y32723D03*
G01X94129Y34374D03*
G01X88329Y34374D03*
G01X88329Y32723D03*
G01X113179Y32723D03*
G01X113179Y34374D03*
G01X107379Y34374D03*
G01X107379Y32723D03*
G01X132229Y32623D03*
G01X132229Y34274D03*
G01X126429Y34274D03*
G01X126429Y32623D03*
G01X151229Y32623D03*
G01X151229Y34274D03*
G01X145429Y34274D03*
G01X145429Y32623D03*
G01X170329Y32623D03*
G01X170329Y34274D03*
G01X164529Y34274D03*
G01X164529Y32623D03*
G01X189379Y32573D03*
G01X189379Y34224D03*
G01X183579Y34224D03*
G01X183579Y32573D03*
G01X208429Y32623D03*
G01X208429Y34274D03*
G01X202629Y34274D03*
G01X202629Y32623D03*
G01X227479Y32573D03*
G01X227479Y34224D03*
G01X221679Y34224D03*
G01X221679Y32573D03*
G01X263179Y32673D03*
G01X263179Y34324D03*
G01X257379Y34324D03*
G01X257379Y32673D03*
G01X303579Y32773D03*
G01X303579Y34424D03*
G01X297779Y34424D03*
G01X297779Y32773D03*
G01X15529Y13623D03*
G01X15529Y15274D03*
G01X9730Y15274D03*
G01X9730Y13623D03*
G01X39229Y13573D03*
G01X39229Y15224D03*
G01X33430Y15224D03*
G01X33430Y13573D03*
G01X63129Y13573D03*
G01X63129Y15224D03*
G01X57329Y15224D03*
G01X57329Y13573D03*
G01X134379Y13623D03*
G01X134379Y15274D03*
G01X128579Y15274D03*
G01X128579Y13623D03*
G01X206029Y13573D03*
G01X206029Y15224D03*
G01X200229Y15224D03*
G01X200229Y13573D03*
G01X229729Y13523D03*
G01X229729Y15174D03*
G01X223929Y15174D03*
G01X223929Y13523D03*
G01X253629Y13573D03*
G01X253629Y15224D03*
G01X247829Y15224D03*
G01X247829Y13573D03*
G01X284529Y13573D03*
G01X284529Y15224D03*
G01X278729Y15224D03*
G01X278729Y13573D03*
G01X303579Y13573D03*
G01X303579Y15224D03*
G01X297779Y15224D03*
G01X297779Y13573D03*
G01X322629Y13623D03*
G01X322629Y15274D03*
G01X316829Y15274D03*
G01X316829Y13623D03*
G36*
G01X307074Y65264D02*
G01X309624Y65264D01*
G01X309624Y62264D01*
G01X307074Y62264D01*
G01X307074Y65264D01*
G37*
G36*
G01X293104Y62724D02*
G01X295654Y62724D01*
G01X295654Y59724D01*
G01X293104Y59724D01*
G01X293104Y62724D01*
G37*
M00*
M02*
